<mxfile host="app.diagrams.net" agent="Mozilla/5.0 (X11; Linux x86_64) AppleWebKit/537.36 (KHTML, like Gecko) Chrome/136.0.0.0 Safari/537.36" version="27.0.3">
  <diagram name="Page-1" id="Z3yLzWJTPDzzIWQX0qvW">
    <mxGraphModel dx="1416" dy="756" grid="1" gridSize="10" guides="1" tooltips="1" connect="1" arrows="1" fold="1" page="1" pageScale="1" pageWidth="850" pageHeight="1100" background="none" math="0" shadow="0">
      <root>
        <mxCell id="0" />
        <mxCell id="1" parent="0" />
        <mxCell id="988n4VOuxymt-XpcWNWP-7" style="edgeStyle=orthogonalEdgeStyle;rounded=0;orthogonalLoop=1;jettySize=auto;html=1;fontStyle=1" edge="1" parent="1" source="988n4VOuxymt-XpcWNWP-4" target="988n4VOuxymt-XpcWNWP-6">
          <mxGeometry relative="1" as="geometry" />
        </mxCell>
        <mxCell id="988n4VOuxymt-XpcWNWP-8" value="Writes" style="edgeLabel;html=1;align=center;verticalAlign=middle;resizable=0;points=[];fontStyle=1" vertex="1" connectable="0" parent="988n4VOuxymt-XpcWNWP-7">
          <mxGeometry x="0.0333" y="-1" relative="1" as="geometry">
            <mxPoint as="offset" />
          </mxGeometry>
        </mxCell>
        <mxCell id="988n4VOuxymt-XpcWNWP-12" value="" style="edgeStyle=orthogonalEdgeStyle;rounded=0;orthogonalLoop=1;jettySize=auto;html=1;" edge="1" parent="1" source="988n4VOuxymt-XpcWNWP-4" target="988n4VOuxymt-XpcWNWP-6">
          <mxGeometry relative="1" as="geometry" />
        </mxCell>
        <mxCell id="988n4VOuxymt-XpcWNWP-4" value="Scheduler" style="rounded=1;whiteSpace=wrap;html=1;" vertex="1" parent="1">
          <mxGeometry x="100" y="300" width="120" height="60" as="geometry" />
        </mxCell>
        <mxCell id="988n4VOuxymt-XpcWNWP-6" value="PlacementDecisions" style="rounded=1;whiteSpace=wrap;html=1;" vertex="1" parent="1">
          <mxGeometry x="280" y="300" width="120" height="60" as="geometry" />
        </mxCell>
        <mxCell id="988n4VOuxymt-XpcWNWP-10" style="edgeStyle=orthogonalEdgeStyle;rounded=0;orthogonalLoop=1;jettySize=auto;html=1;entryX=1;entryY=0.5;entryDx=0;entryDy=0;" edge="1" parent="1" source="988n4VOuxymt-XpcWNWP-9" target="988n4VOuxymt-XpcWNWP-6">
          <mxGeometry relative="1" as="geometry" />
        </mxCell>
        <mxCell id="988n4VOuxymt-XpcWNWP-11" value="&lt;b&gt;Reads&lt;/b&gt;&lt;div&gt;&lt;br&gt;&lt;/div&gt;" style="edgeLabel;html=1;align=center;verticalAlign=middle;resizable=0;points=[];" vertex="1" connectable="0" parent="988n4VOuxymt-XpcWNWP-10">
          <mxGeometry x="0.1333" y="3" relative="1" as="geometry">
            <mxPoint as="offset" />
          </mxGeometry>
        </mxCell>
        <mxCell id="988n4VOuxymt-XpcWNWP-22" style="edgeStyle=orthogonalEdgeStyle;rounded=0;orthogonalLoop=1;jettySize=auto;html=1;entryX=0.5;entryY=0;entryDx=0;entryDy=0;" edge="1" parent="1" source="988n4VOuxymt-XpcWNWP-9" target="988n4VOuxymt-XpcWNWP-17">
          <mxGeometry relative="1" as="geometry" />
        </mxCell>
        <mxCell id="988n4VOuxymt-XpcWNWP-23" value="&lt;b&gt;Actions&lt;/b&gt;" style="edgeLabel;html=1;align=center;verticalAlign=middle;resizable=0;points=[];" vertex="1" connectable="0" parent="988n4VOuxymt-XpcWNWP-22">
          <mxGeometry x="-0.3333" y="3" relative="1" as="geometry">
            <mxPoint as="offset" />
          </mxGeometry>
        </mxCell>
        <mxCell id="988n4VOuxymt-XpcWNWP-9" value="AI/ML/GitOps Tools/Progressive Delivery/Custom Controllers" style="rounded=1;whiteSpace=wrap;html=1;" vertex="1" parent="1">
          <mxGeometry x="470" y="300" width="120" height="60" as="geometry" />
        </mxCell>
        <mxCell id="988n4VOuxymt-XpcWNWP-17" value="" style="rounded=1;whiteSpace=wrap;html=1;" vertex="1" parent="1">
          <mxGeometry x="470" y="420" width="120" height="60" as="geometry" />
        </mxCell>
        <mxCell id="988n4VOuxymt-XpcWNWP-18" value="" style="rounded=1;whiteSpace=wrap;html=1;" vertex="1" parent="1">
          <mxGeometry x="480" y="430" width="120" height="60" as="geometry" />
        </mxCell>
        <mxCell id="988n4VOuxymt-XpcWNWP-19" value="" style="rounded=1;whiteSpace=wrap;html=1;" vertex="1" parent="1">
          <mxGeometry x="490" y="440" width="120" height="60" as="geometry" />
        </mxCell>
        <mxCell id="988n4VOuxymt-XpcWNWP-20" value="" style="rounded=1;whiteSpace=wrap;html=1;" vertex="1" parent="1">
          <mxGeometry x="500" y="450" width="120" height="60" as="geometry" />
        </mxCell>
        <mxCell id="988n4VOuxymt-XpcWNWP-21" value="Spoke/Managed Clusters" style="rounded=1;whiteSpace=wrap;html=1;" vertex="1" parent="1">
          <mxGeometry x="510" y="460" width="120" height="60" as="geometry" />
        </mxCell>
      </root>
    </mxGraphModel>
  </diagram>
</mxfile>
